<svg id="Layer_1" data-name="Layer 1" xmlns="http://www.w3.org/2000/svg" viewBox="0 0 739.45 658.81"><defs><style>.cls-1{fill:#b3b3b3;}.cls-2{fill:none;stroke:#fff;stroke-miterlimit:10;stroke-width:19px;}.cls-3{fill:#b40042;}.cls-4{font-size:125.67px;fill:#fff;}.cls-4,.cls-6,.cls-7{font-family:SegoeScript, Segoe Script;}.cls-5{letter-spacing:-0.06em;}.cls-6{font-size:32.32px;}.cls-7{font-size:27px;}.cls-8{fill:red;}</style></defs><title>UAgenda</title><rect class="cls-1" x="1.9" y="9.5" width="728.04" height="647.44" rx="61.79"/><rect class="cls-2" x="9.5" y="9.5" width="720.45" height="639.81" rx="42.89"/><rect class="cls-3" x="69.1" y="63.67" width="601.89" height="541.28" rx="26.57"/><rect x="221.6" y="53.87" width="29.8" height="129.17"/><rect x="505.99" y="53.87" width="29.8" height="129.17"/><rect class="cls-2" x="59.46" y="53.87" width="620.53" height="551.08" rx="42.89"/><rect class="cls-2" x="109.42" y="177.45" width="520.62" height="321.12" rx="42.89"/><rect class="cls-1" x="150.03" y="211.09" width="39.44" height="39.44"/><rect class="cls-1" x="545.31" y="211.09" width="39.44" height="39.44"/><rect class="cls-1" x="487.44" y="211.09" width="39.44" height="39.44"/><rect class="cls-1" x="429.82" y="211.09" width="39.44" height="39.44"/><rect class="cls-1" x="372.21" y="211.09" width="39.44" height="39.44"/><rect class="cls-1" x="316.55" y="211.09" width="39.44" height="39.44"/><rect class="cls-1" x="259.32" y="211.09" width="39.44" height="39.44"/><rect class="cls-1" x="203.05" y="211.09" width="39.44" height="39.44"/><rect class="cls-1" x="152.36" y="278.57" width="39.44" height="39.44"/><rect class="cls-1" x="547.65" y="278.57" width="39.44" height="39.44"/><rect class="cls-1" x="489.78" y="278.57" width="39.44" height="39.44"/><rect class="cls-1" x="205.39" y="278.57" width="39.44" height="39.44"/><rect class="cls-1" x="152.68" y="346.06" width="39.44" height="39.44"/><rect class="cls-1" x="547.97" y="346.06" width="39.44" height="39.44"/><rect class="cls-1" x="490.1" y="346.06" width="39.44" height="39.44"/><rect class="cls-1" x="205.71" y="346.06" width="39.44" height="39.44"/><rect class="cls-1" x="152.36" y="413.55" width="39.44" height="39.44"/><rect class="cls-1" x="547.65" y="413.55" width="39.44" height="39.44"/><rect class="cls-1" x="489.78" y="413.55" width="39.44" height="39.44"/><rect class="cls-1" x="432.16" y="413.55" width="39.44" height="39.44"/><rect class="cls-1" x="374.54" y="413.55" width="39.44" height="39.44"/><rect class="cls-1" x="318.89" y="413.55" width="39.44" height="39.44"/><rect class="cls-1" x="261.65" y="413.55" width="39.44" height="39.44"/><rect class="cls-1" x="205.39" y="413.55" width="39.44" height="39.44"/><text class="cls-4" transform="translate(270.86 371.05)"><tspan class="cls-5">U</tspan><tspan x="91.37" y="0">A</tspan></text><text class="cls-6" transform="translate(159.23 242.02)">1</text><text class="cls-6" transform="translate(211.97 242.02)">2</text><text class="cls-6" transform="translate(268.13 242.02)">3</text><text class="cls-6" transform="translate(325.33 242.02)">4</text><text class="cls-6" transform="translate(381.03 242.02)">5</text><text class="cls-6" transform="translate(439.07 242.02)">6</text><text class="cls-6" transform="translate(495.55 242.02)">7</text><text class="cls-6" transform="translate(552.13 242.02)">8</text><text class="cls-6" transform="translate(159.23 309.51)">9</text><text class="cls-7" transform="translate(204.2 308.37)">10</text><text class="cls-7" transform="translate(489.78 309.51)">11</text><text class="cls-7" transform="translate(545.31 309.51)">12</text><path class="cls-8" d="M286.76,203.13,308.31,166a1.5,1.5,0,0,0-2.59-1.52l-21.55,37.1a1.5,1.5,0,0,0,2.59,1.51Z" transform="translate(37.97 53.46)"/><path class="cls-8" d="M283.92,174.76a142,142,0,0,1,32.48,28.9c1.23,1.49,3.35-.64,2.12-2.12a144.57,144.57,0,0,0-33.09-29.37c-1.62-1-3.13,1.55-1.51,2.59Z" transform="translate(37.97 53.46)"/><path class="cls-8" d="M465.47,265.05l17.85-34.89c.88-1.72-1.71-3.24-2.59-1.52l-17.85,34.9c-.88,1.71,1.71,3.23,2.59,1.51Z" transform="translate(37.97 53.46)"/><path class="cls-8" d="M455.32,238.88l28,24.58c1.45,1.27,3.58-.85,2.13-2.12l-28-24.58c-1.44-1.27-3.57.84-2.12,2.12Z" transform="translate(37.97 53.46)"/><path class="cls-8" d="M516.49,192.41a120.79,120.79,0,0,0,21.58-37.49c.65-1.82-2.25-2.6-2.89-.8a116.71,116.71,0,0,1-20.81,36.17c-1.24,1.47.87,3.6,2.12,2.12Z" transform="translate(37.97 53.46)"/><path class="cls-8" d="M507.84,172.75A129.45,129.45,0,0,1,539.72,189c1.59,1.1,3.09-1.5,1.52-2.59a133,133,0,0,0-32.6-16.52c-1.83-.63-2.61,2.27-.8,2.9Z" transform="translate(37.97 53.46)"/><text class="cls-7" transform="translate(152.36 377.55)">13</text><text class="cls-7" transform="translate(205.59 377.45)">14</text><text class="cls-7" transform="translate(489.78 377.55)">15</text><text class="cls-7" transform="translate(547.6 377.45)">16</text><text class="cls-7" transform="translate(152.68 442.99)">17</text><text class="cls-7" transform="translate(205.71 442.99)">18</text><text class="cls-7" transform="translate(261.65 442.99)">19</text><text class="cls-7" transform="translate(319.21 442.99)">20</text><text class="cls-7" transform="translate(374.55 442.99)">21</text><text class="cls-7" transform="translate(432.16 442.99)">22</text><text class="cls-7" transform="translate(490.1 442.99)">23</text><text class="cls-7" transform="translate(548.7 442.99)">24</text><path class="cls-8" d="M125.56,330.6a385.13,385.13,0,0,1,25.34-47.48c1-1.64-1.57-3.15-2.59-1.51A385.72,385.72,0,0,0,123,329.08c-.78,1.75,1.8,3.28,2.59,1.52Z" transform="translate(37.97 53.46)"/><path class="cls-8" d="M122.7,305.56a52.28,52.28,0,0,1,18.17,14c1.24,1.49,3.35-.64,2.12-2.12A54.3,54.3,0,0,0,124.22,303a1.54,1.54,0,0,0-2,.54,1.51,1.51,0,0,0,.53,2.05Z" transform="translate(37.97 53.46)"/><path class="cls-8" d="M255.3,372.44A75.2,75.2,0,0,1,239.23,392c-1.46,1.27.67,3.38,2.12,2.12A77.72,77.72,0,0,0,257.89,374a1.5,1.5,0,0,0-2.59-1.51Z" transform="translate(37.97 53.46)"/><path class="cls-8" d="M221.05,375.21a370.7,370.7,0,0,1,42.09,16.4c1.74.8,3.26-1.78,1.51-2.59a374.53,374.53,0,0,0-42.81-16.7c-1.84-.59-2.63,2.3-.79,2.89Z" transform="translate(37.97 53.46)"/></svg>