<?xml version="1.0" encoding="UTF-8" standalone="no"?>
<!-- Generator: Adobe Illustrator 24.0.0, SVG Export Plug-In . SVG Version: 6.00 Build 0)  -->

<svg
   xmlns:dc="http://purl.org/dc/elements/1.1/"
   xmlns:cc="http://creativecommons.org/ns#"
   xmlns:rdf="http://www.w3.org/1999/02/22-rdf-syntax-ns#"
   xmlns:svg="http://www.w3.org/2000/svg"
   xmlns="http://www.w3.org/2000/svg"
   xmlns:sodipodi="http://sodipodi.sourceforge.net/DTD/sodipodi-0.dtd"
   xmlns:inkscape="http://www.inkscape.org/namespaces/inkscape"
   version="1.1"
   id="Layer_1"
   x="0px"
   y="0px"
   viewBox="0 0 639.53003 570.08002"
   xml:space="preserve"
   sodipodi:docname="UAgenda-icon-v2.svg"
   width="639.53003"
   height="570.08002"
   inkscape:version="0.92.5 (2060ec1f9f, 2020-04-08)"><metadata
   id="metadata1070"><rdf:RDF><cc:Work
       rdf:about=""><dc:format>image/svg+xml</dc:format><dc:type
         rdf:resource="http://purl.org/dc/dcmitype/StillImage" /><dc:title></dc:title></cc:Work></rdf:RDF></metadata><defs
   id="defs1068" /><sodipodi:namedview
   pagecolor="#ffffff"
   bordercolor="#666666"
   borderopacity="1"
   objecttolerance="10"
   gridtolerance="10"
   guidetolerance="10"
   inkscape:pageopacity="0"
   inkscape:pageshadow="2"
   inkscape:window-width="1920"
   inkscape:window-height="1007"
   id="namedview1066"
   showgrid="false"
   fit-margin-top="0"
   fit-margin-left="0"
   fit-margin-right="0"
   fit-margin-bottom="0"
   inkscape:zoom="0.56347572"
   inkscape:cx="426.78873"
   inkscape:cy="120.47897"
   inkscape:window-x="0"
   inkscape:window-y="0"
   inkscape:window-maximized="1"
   inkscape:current-layer="Layer_1" />
<style
   type="text/css"
   id="style961">
	.st0{fill:#8F001A;}
	.st1{fill:none;stroke:#FFFFFF;stroke-width:19;stroke-miterlimit:10;}
	.st2{fill:#FFFFFF;}
	.st3{font-family:'SegoeScript';}
	.st4{font-size:268.5345px;}
	.st5{display:none;}
	.st6{font-size:32.3175px;}
	.st7{font-size:26.9968px;}
	.st8{display:inline;}
	.st9{fill:#FF0000;}
</style>
<path
   class="st0"
   d="M 553.5,446.65 H 83.36 c -14.67,0 -26.57,-11.9 -26.57,-26.57 V 159.65 c 0,-14.67 11.9,-26.57 26.57,-26.57 H 553.5 c 14.67,0 26.57,11.9 26.57,26.57 v 260.44 c 0,14.67 -11.89,26.56 -26.57,26.56 z"
   id="path963"
   inkscape:connector-curvature="0"
   style="fill:#8f001a" />
<rect
   x="171.64"
   y="9.4999962"
   width="29.799999"
   height="129.17"
   id="rect965" />
<rect
   x="456.03"
   y="9.4999962"
   width="29.799999"
   height="129.17"
   id="rect967" />
<path
   class="st1"
   d="M 587.14,560.58 H 52.39 C 28.7,560.58 9.5,541.38 9.5,517.69 V 52.39 C 9.5,28.7 28.7,9.5 52.39,9.5 h 534.75 c 23.69,0 42.89,19.2 42.89,42.89 v 465.29 c 0,23.69 -19.2,42.9 -42.89,42.9 z"
   id="path969"
   inkscape:connector-curvature="0"
   style="fill:none;stroke:#ffffff;stroke-width:19;stroke-miterlimit:10" />
<path
   class="st1"
   d="M 537.18,454.19 H 102.35 c -23.69,0 -42.89,-19.2 -42.89,-42.89 V 175.97 c 0,-23.69 19.2,-42.89 42.89,-42.89 h 434.83 c 23.69,0 42.89,19.2 42.89,42.89 V 411.3 c 0,23.69 -19.2,42.89 -42.89,42.89 z"
   id="path971"
   inkscape:connector-curvature="0"
   style="fill:none;stroke:#ffffff;stroke-width:19;stroke-miterlimit:10" />
<text
   class="st2 st3 st4"
   id="text973"
   style="font-size:268.53448486px;font-family:SegoeScript;fill:#ffffff"
   x="122.9376"
   y="381.8667">UA</text>

<text
   class="st5 st3 st6"
   id="text975"
   style="font-size:32.31750107px;font-family:SegoeScript;display:none"
   x="109.2687"
   y="197.65311">1</text>

<text
   class="st5 st3 st6"
   id="text977"
   style="font-size:32.31750107px;font-family:SegoeScript;display:none"
   x="162.00951"
   y="197.65311">2</text>

<text
   class="st5 st3 st6"
   id="text979"
   style="font-size:32.31750107px;font-family:SegoeScript;display:none"
   x="389.10999"
   y="197.6526">6</text>

<text
   class="st5 st3 st6"
   id="text981"
   style="font-size:32.31750107px;font-family:SegoeScript;display:none"
   x="445.59241"
   y="197.6526">7</text>

<text
   class="st5 st3 st6"
   id="text983"
   style="font-size:32.31750107px;font-family:SegoeScript;display:none"
   x="502.17349"
   y="197.6521">8</text>

<text
   class="st5 st3 st6"
   id="text985"
   style="font-size:32.31750107px;font-family:SegoeScript;display:none"
   x="109.2692"
   y="265.13791">9</text>

<text
   class="st5 st3 st7"
   id="text987"
   style="font-size:26.99679947px;font-family:SegoeScript;display:none"
   x="154.23511"
   y="263.9939">10</text>

<text
   class="st5 st3 st7"
   id="text989"
   style="font-size:26.99679947px;font-family:SegoeScript;display:none"
   x="439.81799"
   y="265.1384">11</text>

<text
   class="st5 st3 st7"
   id="text991"
   style="font-size:26.99679947px;font-family:SegoeScript;display:none"
   x="495.34729"
   y="265.13889">12</text>

<g
   class="st5"
   id="g997"
   style="display:none"
   transform="translate(-267.79,-136.73)">
	<g
   class="st8"
   id="g995"
   style="display:inline">
		<path
   class="st9"
   d="m 721.27,410.87 c 5.95,-11.63 11.9,-23.26 17.85,-34.89 0.88,-1.72 -1.71,-3.24 -2.59,-1.51 -5.95,11.63 -11.9,23.26 -17.85,34.89 -0.88,1.71 1.71,3.23 2.59,1.51 z"
   id="path993"
   inkscape:connector-curvature="0"
   style="fill:#ff0000" />
	</g>
</g>
<g
   class="st5"
   id="g1003"
   style="display:none"
   transform="translate(-267.79,-136.73)">
	<g
   class="st8"
   id="g1001"
   style="display:inline">
		<path
   class="st9"
   d="m 711.12,384.69 c 9.34,8.19 18.68,16.39 28.01,24.58 1.45,1.27 3.58,-0.84 2.12,-2.12 -9.34,-8.19 -18.68,-16.39 -28.01,-24.58 -1.44,-1.27 -3.57,0.85 -2.12,2.12 z"
   id="path999"
   inkscape:connector-curvature="0"
   style="fill:#ff0000" />
	</g>
</g>
<g
   class="st5"
   id="g1009"
   style="display:none"
   transform="translate(-267.79,-136.73)">
	<g
   class="st8"
   id="g1007"
   style="display:inline">
		<path
   class="st9"
   d="m 772.29,338.23 c 9.39,-11.1 16.7,-23.8 21.58,-37.49 0.65,-1.82 -2.25,-2.61 -2.89,-0.8 -4.69,13.18 -11.77,25.48 -20.81,36.17 -1.24,1.46 0.87,3.6 2.12,2.12 z"
   id="path1005"
   inkscape:connector-curvature="0"
   style="fill:#ff0000" />
	</g>
</g>
<g
   class="st5"
   id="g1015"
   style="display:none"
   transform="translate(-267.79,-136.73)">
	<g
   class="st8"
   id="g1013"
   style="display:inline">
		<path
   class="st9"
   d="m 763.64,318.56 c 11.33,3.9 22.05,9.37 31.88,16.21 1.59,1.1 3.09,-1.49 1.51,-2.59 -10.04,-6.99 -21.03,-12.53 -32.6,-16.51 -1.82,-0.63 -2.6,2.27 -0.79,2.89 z"
   id="path1011"
   inkscape:connector-curvature="0"
   style="fill:#ff0000" />
	</g>
</g>
<text
   class="st5 st3 st7"
   id="text1017"
   style="font-size:26.99679947px;font-family:SegoeScript;display:none"
   x="102.402"
   y="333.17801">13</text>

<text
   class="st5 st3 st7"
   id="text1019"
   style="font-size:26.99679947px;font-family:SegoeScript;display:none"
   x="155.6252"
   y="333.08081">14</text>

<text
   class="st5 st3 st7"
   id="text1021"
   style="font-size:26.99679947px;font-family:SegoeScript;display:none"
   x="439.81799"
   y="333.17841">15</text>

<text
   class="st5 st3 st7"
   id="text1023"
   style="font-size:26.99679947px;font-family:SegoeScript;display:none"
   x="497.63541"
   y="333.08081">16</text>

<text
   class="st5 st3 st7"
   id="text1025"
   style="font-size:26.99679947px;font-family:SegoeScript;display:none"
   x="102.7238"
   y="398.6203">17</text>

<text
   class="st5 st3 st7"
   id="text1027"
   style="font-size:26.99679947px;font-family:SegoeScript;display:none"
   x="155.74921"
   y="398.6203">18</text>

<text
   class="st5 st3 st7"
   id="text1029"
   style="font-size:26.99679947px;font-family:SegoeScript;display:none"
   x="211.6916"
   y="398.6203">19</text>

<text
   class="st5 st3 st7"
   id="text1031"
   style="font-size:26.99679947px;font-family:SegoeScript;display:none"
   x="269.25259"
   y="398.6199">20</text>

<text
   class="st5 st3 st7"
   id="text1033"
   style="font-size:26.99679947px;font-family:SegoeScript;display:none"
   x="324.58459"
   y="398.6199">21</text>

<text
   class="st5 st3 st7"
   id="text1035"
   style="font-size:26.99679947px;font-family:SegoeScript;display:none"
   x="382.20081"
   y="398.6203">22</text>

<text
   class="st5 st3 st7"
   id="text1037"
   style="font-size:26.99679947px;font-family:SegoeScript;display:none"
   x="440.13931"
   y="398.6203">23</text>

<text
   class="st5 st3 st7"
   id="text1039"
   style="font-size:26.99679947px;font-family:SegoeScript;display:none"
   x="498.74091"
   y="398.6199">24</text>

<g
   class="st5"
   id="g1045"
   style="display:none"
   transform="translate(-267.79,-136.73)">
	<g
   class="st8"
   id="g1043"
   style="display:inline">
		<path
   class="st9"
   d="m 381.36,476.41 c 7.33,-16.39 15.8,-32.26 25.34,-47.48 1.03,-1.64 -1.57,-3.15 -2.59,-1.51 -9.54,15.21 -18.01,31.08 -25.34,47.48 -0.78,1.75 1.8,3.27 2.59,1.51 z"
   id="path1041"
   inkscape:connector-curvature="0"
   style="fill:#ff0000" />
	</g>
</g>
<g
   class="st5"
   id="g1051"
   style="display:none"
   transform="translate(-267.79,-136.73)">
	<g
   class="st8"
   id="g1049"
   style="display:inline">
		<path
   class="st9"
   d="m 378.5,451.38 c 7.03,3.27 13.21,8.03 18.17,13.99 1.24,1.49 3.35,-0.65 2.12,-2.12 -5.1,-6.13 -11.55,-11.1 -18.77,-14.46 -0.73,-0.34 -1.62,-0.21 -2.05,0.54 -0.39,0.65 -0.21,1.71 0.53,2.05 z"
   id="path1047"
   inkscape:connector-curvature="0"
   style="fill:#ff0000" />
	</g>
</g>
<g
   class="st5"
   id="g1057"
   style="display:none"
   transform="translate(-267.79,-136.73)">
	<g
   class="st8"
   id="g1055"
   style="display:inline">
		<path
   class="st9"
   d="m 511.1,518.25 c -4.22,7.4 -9.65,14 -16.07,19.58 -1.46,1.27 0.67,3.38 2.12,2.12 6.6,-5.74 12.21,-12.59 16.54,-20.19 0.96,-1.67 -1.63,-3.19 -2.59,-1.51 z"
   id="path1053"
   inkscape:connector-curvature="0"
   style="fill:#ff0000" />
	</g>
</g>
<g
   class="st5"
   id="g1063"
   style="display:none"
   transform="translate(-267.79,-136.73)">
	<g
   class="st8"
   id="g1061"
   style="display:inline">
		<path
   class="st9"
   d="m 476.84,521.03 c 14.35,4.61 28.41,10.08 42.09,16.4 1.74,0.8 3.27,-1.78 1.51,-2.59 -13.92,-6.43 -28.21,-12.01 -42.81,-16.7 -1.83,-0.6 -2.62,2.3 -0.79,2.89 z"
   id="path1059"
   inkscape:connector-curvature="0"
   style="fill:#ff0000" />
	</g>
</g>
</svg>