<?xml version="1.0" encoding="utf-8"?>
<!-- Generator: Adobe Illustrator 24.0.0, SVG Export Plug-In . SVG Version: 6.00 Build 0)  -->
<svg version="1.1" id="Layer_1" xmlns="http://www.w3.org/2000/svg" xmlns:xlink="http://www.w3.org/1999/xlink" x="0px" y="0px"
	 viewBox="0 0 655.91 582.13" style="enable-background:new 0 0 655.91 582.13;" xml:space="preserve">
<style type="text/css">
	.st0{fill:#B3B3B3;}
	.st1{fill:none;stroke:#FFFFFF;stroke-width:19;stroke-miterlimit:10;}
	.st2{fill:#8F001A;}
	.st3{fill:#FFFFFF;}
	.st4{font-family:'SegoeScript';}
	.st5{font-size:125.6681px;}
	.st6{font-size:32.3175px;}
	.st7{font-size:26.9968px;}
	.st8{fill:#FF0000;}
</style>
<path class="st0" d="M630.19,603.48H25.72c-34.12,0-61.79-27.66-61.79-61.79V17.83c0-34.12,27.66-61.79,61.79-61.79h604.47
	c34.12,0,61.79,27.66,61.79,61.79v523.87C691.98,575.82,664.32,603.48,630.19,603.48z"/>
<path class="st1" d="M649.09,595.86H14.42c-23.69,0-42.89-19.2-42.89-42.89V-1.06c0-23.69,19.2-42.89,42.89-42.89h634.66
	c23.69,0,42.89,19.2,42.89,42.89v554.03C691.98,576.65,672.78,595.86,649.09,595.86z"/>
<path class="st2" d="M606.45,551.49H57.7c-14.67,0-26.57-11.9-26.57-26.57V36.78c0-14.67,11.9-26.57,26.57-26.57h548.75
	c14.67,0,26.57,11.9,26.57,26.57v488.14C633.02,539.59,621.13,551.49,606.45,551.49z"/>
<rect x="183.63" y="0.41" width="29.8" height="129.17"/>
<rect x="468.02" y="0.41" width="29.8" height="129.17"/>
<path class="st1" d="M599.13,551.49H64.38c-23.69,0-42.89-19.2-42.89-42.89V43.3c0-23.69,19.2-42.89,42.89-42.89h534.74
	c23.69,0,42.89,19.2,42.89,42.89V508.6C642.02,532.29,622.82,551.49,599.13,551.49z"/>
<path class="st1" d="M549.17,445.11H114.34c-23.69,0-42.89-19.2-42.89-42.89V166.88c0-23.69,19.2-42.89,42.89-42.89h434.83
	c23.69,0,42.89,19.2,42.89,42.89v235.33C592.06,425.9,572.86,445.11,549.17,445.11z"/>
<rect x="112.06" y="157.63" class="st0" width="39.44" height="39.44"/>
<rect x="507.34" y="157.63" class="st0" width="39.44" height="39.44"/>
<rect x="449.47" y="157.63" class="st0" width="39.44" height="39.44"/>
<rect x="391.86" y="157.63" class="st0" width="39.44" height="39.44"/>
<rect x="334.24" y="157.63" class="st0" width="39.44" height="39.44"/>
<rect x="278.58" y="157.63" class="st0" width="39.44" height="39.44"/>
<rect x="221.35" y="157.63" class="st0" width="39.44" height="39.44"/>
<rect x="165.08" y="157.63" class="st0" width="39.44" height="39.44"/>
<rect x="114.39" y="225.11" class="st0" width="39.44" height="39.44"/>
<rect x="509.68" y="225.11" class="st0" width="39.44" height="39.44"/>
<rect x="451.81" y="225.11" class="st0" width="39.44" height="39.44"/>
<rect x="167.42" y="225.11" class="st0" width="39.44" height="39.44"/>
<rect x="114.72" y="292.6" class="st0" width="39.44" height="39.44"/>
<rect x="510" y="292.6" class="st0" width="39.44" height="39.44"/>
<rect x="452.13" y="292.6" class="st0" width="39.44" height="39.44"/>
<rect x="167.74" y="292.6" class="st0" width="39.44" height="39.44"/>
<rect x="114.39" y="360.09" class="st0" width="39.44" height="39.44"/>
<rect x="509.68" y="360.09" class="st0" width="39.44" height="39.44"/>
<rect x="451.81" y="360.09" class="st0" width="39.44" height="39.44"/>
<rect x="394.19" y="360.09" class="st0" width="39.44" height="39.44"/>
<rect x="336.58" y="360.09" class="st0" width="39.44" height="39.44"/>
<rect x="280.92" y="360.09" class="st0" width="39.44" height="39.44"/>
<rect x="223.68" y="360.09" class="st0" width="39.44" height="39.44"/>
<rect x="167.42" y="360.09" class="st0" width="39.44" height="39.44"/>
<text transform="matrix(1 0 0 1 232.8865 317.5891)" class="st3 st4 st5">UA</text>
<text transform="matrix(1 0 0 1 121.261 188.5667)" class="st4 st6">1</text>
<text transform="matrix(1 0 0 1 174.0017 188.5667)" class="st4 st6">2</text>
<text transform="matrix(1 0 0 1 230.1599 188.5671)" class="st4 st6">3</text>
<text transform="matrix(1 0 0 1 287.3572 188.5662)" class="st4 st6">4</text>
<text transform="matrix(1 0 0 1 343.0613 188.5671)" class="st4 st6">5</text>
<text transform="matrix(1 0 0 1 401.1023 188.5662)" class="st4 st6">6</text>
<text transform="matrix(1 0 0 1 457.5847 188.5662)" class="st4 st6">7</text>
<text transform="matrix(1 0 0 1 514.1658 188.5657)" class="st4 st6">8</text>
<text transform="matrix(1 0 0 1 121.2615 256.0515)" class="st4 st6">9</text>
<text transform="matrix(1 0 0 1 166.2273 254.9075)" class="st4 st7">10</text>
<text transform="matrix(1 0 0 1 451.8103 256.052)" class="st4 st7">11</text>
<text transform="matrix(1 0 0 1 507.3396 256.0525)" class="st4 st7">12</text>
<g>
	<g>
		<path class="st8" d="M286.76,203.13c7.18-12.36,14.37-24.73,21.55-37.09c0.97-1.67-1.62-3.18-2.59-1.51
			c-7.18,12.36-14.37,24.73-21.55,37.09C283.2,203.29,285.79,204.8,286.76,203.13L286.76,203.13z"/>
	</g>
</g>
<g>
	<g>
		<path class="st8" d="M283.92,174.76c12.25,7.9,23.2,17.66,32.48,28.9c1.23,1.49,3.34-0.64,2.12-2.12
			c-9.44-11.42-20.63-21.33-33.09-29.36C283.81,171.12,282.3,173.72,283.92,174.76L283.92,174.76z"/>
	</g>
</g>
<g>
	<g>
		<path class="st8" d="M465.47,265.05c5.95-11.63,11.9-23.26,17.85-34.89c0.88-1.72-1.71-3.24-2.59-1.51
			c-5.95,11.63-11.9,23.26-17.85,34.89C462,265.25,464.59,266.77,465.47,265.05L465.47,265.05z"/>
	</g>
</g>
<g>
	<g>
		<path class="st8" d="M455.32,238.88c9.34,8.19,18.68,16.39,28.01,24.58c1.45,1.27,3.58-0.84,2.12-2.12
			c-9.34-8.19-18.68-16.39-28.01-24.58C456,235.49,453.87,237.6,455.32,238.88L455.32,238.88z"/>
	</g>
</g>
<g>
	<g>
		<path class="st8" d="M516.49,192.41c9.39-11.1,16.7-23.8,21.58-37.49c0.65-1.82-2.25-2.61-2.89-0.8
			c-4.69,13.18-11.77,25.48-20.81,36.17C513.13,191.76,515.24,193.89,516.49,192.41L516.49,192.41z"/>
	</g>
</g>
<g>
	<g>
		<path class="st8" d="M507.84,172.75c11.33,3.9,22.05,9.37,31.88,16.21c1.59,1.1,3.09-1.49,1.51-2.59
			c-10.04-6.99-21.03-12.53-32.6-16.51C506.81,169.22,506.03,172.12,507.84,172.75L507.84,172.75z"/>
	</g>
</g>
<text transform="matrix(1 0 0 1 114.3943 324.0916)" class="st4 st7">13</text>
<text transform="matrix(1 0 0 1 167.6174 323.9944)" class="st4 st7">14</text>
<text transform="matrix(1 0 0 1 451.8103 324.092)" class="st4 st7">15</text>
<text transform="matrix(1 0 0 1 509.6277 323.9944)" class="st4 st7">16</text>
<text transform="matrix(1 0 0 1 114.7161 389.5339)" class="st4 st7">17</text>
<text transform="matrix(1 0 0 1 167.7415 389.5339)" class="st4 st7">18</text>
<text transform="matrix(1 0 0 1 223.6838 389.5339)" class="st4 st7">19</text>
<text transform="matrix(1 0 0 1 281.2449 389.5334)" class="st4 st7">20</text>
<text transform="matrix(1 0 0 1 336.5769 389.5334)" class="st4 st7">21</text>
<text transform="matrix(1 0 0 1 394.1931 389.5339)" class="st4 st7">22</text>
<text transform="matrix(1 0 0 1 452.1316 389.5339)" class="st4 st7">23</text>
<text transform="matrix(1 0 0 1 510.7332 389.5334)" class="st4 st7">24</text>
<g>
	<g>
		<path class="st8" d="M125.56,330.6c7.33-16.39,15.8-32.26,25.34-47.48c1.03-1.64-1.57-3.15-2.59-1.51
			c-9.54,15.21-18.01,31.08-25.34,47.48C122.19,330.83,124.77,332.36,125.56,330.6L125.56,330.6z"/>
	</g>
</g>
<g>
	<g>
		<path class="st8" d="M122.7,305.56c7.03,3.27,13.21,8.03,18.17,13.99c1.24,1.49,3.35-0.65,2.12-2.12
			c-5.1-6.13-11.55-11.1-18.77-14.46c-0.73-0.34-1.62-0.21-2.05,0.54C121.79,304.16,121.97,305.22,122.7,305.56L122.7,305.56z"/>
	</g>
</g>
<g>
	<g>
		<path class="st8" d="M255.3,372.44c-4.22,7.4-9.65,14-16.07,19.58c-1.46,1.27,0.67,3.38,2.12,2.12
			c6.6-5.74,12.21-12.59,16.54-20.19C258.85,372.27,256.26,370.76,255.3,372.44L255.3,372.44z"/>
	</g>
</g>
<g>
	<g>
		<path class="st8" d="M221.05,375.21c14.35,4.61,28.41,10.08,42.09,16.4c1.74,0.8,3.27-1.78,1.51-2.59
			c-13.92-6.43-28.21-12.01-42.81-16.7C220,371.73,219.21,374.62,221.05,375.21L221.05,375.21z"/>
	</g>
</g>
</svg>
