<svg id="Layer_1" data-name="Layer 1" xmlns="http://www.w3.org/2000/svg" viewBox="0 0 639.53 570.08"><defs><style>.cls-1{fill:#8f001a;}.cls-2{fill:none;stroke:#fff;stroke-miterlimit:10;stroke-width:19px;}.cls-3{fill:#b3b3b3;}.cls-4{font-size:125.67px;fill:#fff;}.cls-4,.cls-6,.cls-7{font-family:SegoeScript, Segoe Script;}.cls-5{letter-spacing:-0.06em;}.cls-6{font-size:32.32px;}.cls-7{font-size:27px;}</style></defs><title>UAgenda</title><rect class="cls-1" x="19.14" y="19.3" width="601.89" height="541.28" rx="26.57"/><rect x="171.64" y="9.5" width="29.8" height="129.17"/><rect x="456.04" y="9.5" width="29.8" height="129.17"/><rect class="cls-2" x="9.5" y="9.5" width="620.53" height="551.08" rx="42.89"/><rect class="cls-2" x="59.46" y="133.08" width="520.62" height="321.12" rx="42.89"/><rect class="cls-3" x="100.07" y="166.72" width="39.44" height="39.44"/><rect class="cls-3" x="495.35" y="166.72" width="39.44" height="39.44"/><rect class="cls-3" x="437.48" y="166.72" width="39.44" height="39.44"/><rect class="cls-3" x="379.87" y="166.72" width="39.44" height="39.44"/><rect class="cls-3" x="322.25" y="166.72" width="39.44" height="39.44"/><rect class="cls-3" x="266.59" y="166.72" width="39.44" height="39.44"/><rect class="cls-3" x="209.36" y="166.72" width="39.44" height="39.44"/><rect class="cls-3" x="153.09" y="166.72" width="39.44" height="39.44"/><rect class="cls-3" x="102.4" y="234.21" width="39.44" height="39.44"/><rect class="cls-3" x="497.69" y="234.21" width="39.44" height="39.44"/><rect class="cls-3" x="439.82" y="234.21" width="39.44" height="39.44"/><rect class="cls-3" x="155.43" y="234.21" width="39.44" height="39.44"/><rect class="cls-3" x="102.73" y="301.69" width="39.44" height="39.44"/><rect class="cls-3" x="498.01" y="301.69" width="39.44" height="39.44"/><rect class="cls-3" x="440.14" y="301.69" width="39.44" height="39.44"/><rect class="cls-3" x="155.75" y="301.69" width="39.44" height="39.44"/><rect class="cls-3" x="102.4" y="369.18" width="39.44" height="39.44"/><rect class="cls-3" x="497.69" y="369.18" width="39.44" height="39.44"/><rect class="cls-3" x="439.82" y="369.18" width="39.44" height="39.44"/><rect class="cls-3" x="382.2" y="369.18" width="39.44" height="39.44"/><rect class="cls-3" x="324.59" y="369.18" width="39.44" height="39.44"/><rect class="cls-3" x="268.93" y="369.18" width="39.44" height="39.44"/><rect class="cls-3" x="211.69" y="369.18" width="39.44" height="39.44"/><rect class="cls-3" x="155.43" y="369.18" width="39.44" height="39.44"/><text class="cls-4" transform="translate(220.9 326.68)"><tspan class="cls-5">U</tspan><tspan x="91.37" y="0">A</tspan></text><text class="cls-6" transform="translate(109.27 197.66)">1</text><text class="cls-6" transform="translate(162.01 197.66)">2</text><text class="cls-6" transform="translate(218.17 197.66)">3</text><text class="cls-6" transform="translate(275.37 197.66)">4</text><text class="cls-6" transform="translate(331.07 197.66)">5</text><text class="cls-6" transform="translate(389.11 197.66)">6</text><text class="cls-6" transform="translate(445.6 197.66)">7</text><text class="cls-6" transform="translate(502.18 197.66)">8</text><text class="cls-6" transform="translate(109.27 265.14)">9</text><text class="cls-7" transform="translate(154.24 264)">10</text><text class="cls-7" transform="translate(439.82 265.14)">11</text><text class="cls-7" transform="translate(495.35 265.14)">12</text><text class="cls-7" transform="translate(102.4 333.18)">13</text><text class="cls-7" transform="translate(155.63 333.09)">14</text><text class="cls-7" transform="translate(439.82 333.18)">15</text><text class="cls-7" transform="translate(497.64 333.09)">16</text><text class="cls-7" transform="translate(102.73 398.62)">17</text><text class="cls-7" transform="translate(155.75 398.62)">18</text><text class="cls-7" transform="translate(211.69 398.62)">19</text><text class="cls-7" transform="translate(269.26 398.62)">20</text><text class="cls-7" transform="translate(324.59 398.62)">21</text><text class="cls-7" transform="translate(382.2 398.62)">22</text><text class="cls-7" transform="translate(440.14 398.62)">23</text><text class="cls-7" transform="translate(498.74 398.62)">24</text></svg>